<?xml version="1.0" standalone="no"?>
<!DOCTYPE svg PUBLIC "-//W3C//DTD SVG 20010904//EN"
 "http://www.w3.org/TR/2001/REC-SVG-20010904/DTD/svg10.dtd">
<svg version="1.0" xmlns="http://www.w3.org/2000/svg"
 width="180.000000pt" height="180.000000pt" viewBox="0 0 180.000000 180.000000"
 preserveAspectRatio="xMidYMid meet">
<metadata>
Created by potrace 1.14, written by Peter Selinger 2001-2017
</metadata>
<g transform="translate(0.000000,180.000000) scale(0.100000,-0.100000)"
fill="#000000" stroke="none">
<path d="M770 1777 c-3 -3 -23 -7 -45 -10 -22 -2 -47 -7 -55 -10 -8 -2 -37
-13 -65 -22 -68 -24 -160 -71 -215 -109 -45 -31 -190 -169 -190 -181 0 -3 -9
-15 -20 -27 -37 -40 -118 -210 -135 -284 -2 -10 -9 -37 -14 -59 -6 -22 -10
-107 -9 -190 1 -157 19 -244 69 -349 10 -22 19 -44 19 -48 0 -5 5 -14 10 -21
6 -7 28 -40 50 -73 44 -67 171 -200 201 -209 11 -4 19 -10 19 -14 0 -8 201
-113 230 -120 8 -2 20 -4 25 -5 6 -1 19 -5 30 -9 49 -15 88 -20 210 -23 72 -2
150 1 175 7 25 6 54 12 64 15 55 11 227 84 246 104 3 3 25 18 49 33 65 43 175
157 224 234 35 54 82 143 92 173 14 45 30 97 31 105 1 6 3 12 4 15 19 50 23
290 6 363 -13 54 -15 63 -17 70 0 1 -2 13 -5 27 -6 38 -114 251 -130 257 -8 3
-14 9 -14 14 0 23 -131 149 -207 201 -63 43 -173 98 -197 98 -8 0 -17 4 -20 9
-3 5 -23 12 -43 16 -21 5 -45 10 -53 13 -23 6 -314 15 -320 9z"/>
</g>
</svg>
